# xmcd
#
# Track frame offsets:
#	150
#	13461
#	27261
#	41129
#	57777
#	71523
#	86820
#	98969
#	108777
#	127654
#	137497
#	160442
#	180153
#	195013
#
# Disc length: 2836 seconds
#
# Revision: 0
# Processed by: cddbd v1.5.1PL2 Copyright (c) Steve Scherf et al.
# Submitted via: dBpowerAMP V4.0
#
DISCID=ad0b120e
DTITLE=Assorted - Rowdy Country Christmas
DYEAR=2005
DGENRE=Country
TTITLE0=God Rest Ye Merry Gentlemen-Roy Clark
TTITLE1=What Child Is This-Lee Greenwood
TTITLE2=The First Noel-B.J.Thomas
TTITLE3=Deck The Halls-Willie Nelson
TTITLE4=Away In A Manger-Waylon Jennings
TTITLE5=Oh Christmas Tree-Tom T. Hall
TTITLE6=Joy To The World-Mickey Gilley
TTITLE7=Winter Wonderland-T. Graham Brown
TTITLE8=Have Yourself A Merry Christmas-Eddy Raven
TTITLE9=We Wish You A Merry Christmas-Willie Nelson
TTITLE10=The Twelve Days Of Christma-Lee Greenwood
TTITLE11=Silent Night-Boxcar Willie
TTITLE12=Do You Hear What I Hear-Gatlin Brothers
TTITLE13=Little Drummer Boy-Glenn Campbell
EXTD=
EXTT0=
EXTT1=
EXTT2=
EXTT3=
EXTT4=
EXTT5=
EXTT6=
EXTT7=
EXTT8=
EXTT9=
EXTT10=
EXTT11=
EXTT12=
EXTT13=
PLAYORDER=
